<?xml version="1.0" encoding="UTF-8" standalone="no"?>
<svg
   xmlns:dc="http://purl.org/dc/elements/1.1/"
   xmlns:cc="http://creativecommons.org/ns#"
   xmlns:rdf="http://www.w3.org/1999/02/22-rdf-syntax-ns#"
   xmlns:svg="http://www.w3.org/2000/svg"
   xmlns="http://www.w3.org/2000/svg"
   viewBox="0 0 248.03751 185.71249"
   height="185.71249"
   width="248.03751"
   xml:space="preserve"
   version="1.1"
   id="svg3355"><metadata
     id="metadata3361"><rdf:RDF><cc:Work
         rdf:about=""><dc:format>image/svg+xml</dc:format><dc:type
           rdf:resource="http://purl.org/dc/dcmitype/StillImage" /><dc:title></dc:title></cc:Work></rdf:RDF></metadata><defs
     id="defs3359"><clipPath
       id="clipPath3387"
       clipPathUnits="userSpaceOnUse"><path
         id="path3389"
         d="m 0,0 1981.5,0 0,1483.05 L 0,1483.05 0,0 Z" /></clipPath></defs><g
     transform="matrix(1.25,0,0,-1.25,0,185.7125)"
     id="g3363"><g
       transform="scale(0.1,0.1)"
       id="g3365"><path
         id="path3367"
         style="fill:none;stroke:#000000;stroke-width:4.99934006;stroke-linecap:butt;stroke-linejoin:round;stroke-miterlimit:10;stroke-dasharray:none;stroke-opacity:1"
         d="M 415.215,676.266 750.848,1347.53" /><path
         id="path3369"
         style="fill:none;stroke:#000000;stroke-width:4.99934006;stroke-linecap:round;stroke-linejoin:round;stroke-miterlimit:10;stroke-dasharray:none;stroke-opacity:1"
         d="M 415.215,676.266 79.5859,5" /><path
         id="path3371"
         style="fill:none;stroke:#000000;stroke-width:4.99934006;stroke-linecap:butt;stroke-linejoin:round;stroke-miterlimit:10;stroke-dasharray:none;stroke-opacity:1"
         d="M 1366.18,732.203 750.848,1347.53" /><path
         id="path3373"
         style="fill:none;stroke:#000000;stroke-width:4.99934006;stroke-linecap:round;stroke-linejoin:round;stroke-miterlimit:10;stroke-dasharray:none;stroke-opacity:1"
         d="M 1366.18,732.203 1981.5,116.879" /><path
         id="path3375"
         style="fill:none;stroke:#000000;stroke-width:4.99934006;stroke-linecap:butt;stroke-linejoin:round;stroke-miterlimit:10;stroke-dasharray:none;stroke-opacity:1"
         d="m 937.313,601.68 -559.387,0" /><path
         id="path3377"
         style="fill:none;stroke:#000000;stroke-width:4.99934006;stroke-linecap:butt;stroke-linejoin:round;stroke-miterlimit:10;stroke-dasharray:none;stroke-opacity:1"
         d="m 937.313,601.68 559.387,0" /><path
         id="path3379"
         style="fill:none;stroke:#000000;stroke-width:4.99934006;stroke-linecap:round;stroke-linejoin:round;stroke-miterlimit:10;stroke-dasharray:none;stroke-opacity:1"
         d="m 1104.32,879.137 c 0,6.527 -0.23,13.058 -0.69,19.57 -0.47,6.516 -1.16,13.008 -2.08,19.473 -0.91,6.465 -2.06,12.898 -3.43,19.281 -1.38,6.383 -2.98,12.719 -4.8,18.988 -1.81,6.274 -3.86,12.477 -6.11,18.606 -2.26,6.125 -4.73,12.172 -7.42,18.125 -2.68,5.953 -5.58,11.81 -8.67,17.56 -3.1,5.74 -6.4,11.39 -9.89,16.9 -3.5,5.52 -7.19,10.91 -11.06,16.16 -3.88,5.26 -7.94,10.38 -12.17,15.34 -4.24,4.97 -8.65,9.79 -13.23,14.45 -4.57,4.66 -9.31,9.15 -14.21,13.48 -4.89,4.32 -9.93,8.47 -15.122,12.43 -5.184,3.97 -10.508,7.76 -15.961,11.35 -5.454,3.59 -11.036,6.99 -16.727,10.19 -5.691,3.19 -11.496,6.19 -17.402,8.98 -5.903,2.79 -11.907,5.37 -17.993,7.73 -6.085,2.37 -12.253,4.52 -18.492,6.45 -6.238,1.93 -12.543,3.64 -18.902,5.12 -6.359,1.48 -12.766,2.75 -19.215,3.78 -6.449,1.03 -12.93,1.84 -19.433,2.41 -6.504,0.58 -13.028,0.92 -19.559,1.04 -6.527,0.11 -13.059,0 -19.578,-0.35 -6.524,-0.34 -13.028,-0.92 -19.508,-1.72 -6.48,-0.81 -12.93,-1.84 -19.34,-3.1 -6.406,-1.26 -12.765,-2.74 -19.07,-4.45 -6.301,-1.71 -12.543,-3.64 -18.707,-5.79 -6.168,-2.15 -12.254,-4.51 -18.254,-7.1 -6,-2.58 -11.906,-5.36 -17.707,-8.36 -5.805,-2.99 -11.5,-6.19 -17.074,-9.59 -5.578,-3.4 -11.032,-6.99 -16.356,-10.77 -5.324,-3.78 -10.512,-7.75 -15.555,-11.9 -5.042,-4.15 -9.937,-8.47 -14.675,-12.97 -4.739,-4.49 -9.317,-9.15 -13.727,-13.97 -4.41,-4.81 -8.644,-9.78 -12.703,-14.9 -4.059,-5.12 -7.937,-10.37 -11.625,-15.76 -3.687,-5.39 -7.184,-10.91 -10.48,-16.54 -3.297,-5.64 -6.399,-11.39 -9.29,-17.24 -2.89,-5.86 -5.578,-11.813 -8.05,-17.856 -2.473,-6.047 -4.731,-12.176 -6.77,-18.379 -2.039,-6.203 -3.859,-12.477 -5.457,-18.809 -1.598,-6.328 -2.969,-12.715 -4.117,-19.144 -1.145,-6.43 -2.066,-12.895 -2.754,-19.391 -0.691,-6.492 -1.152,-13.008 -1.383,-19.531 -0.23,-6.528 -0.23,-13.059 0,-19.586 0.231,-6.528 0.692,-13.043 1.383,-19.535 0.688,-6.493 1.609,-12.961 2.754,-19.387 1.148,-6.43 2.519,-12.817 4.117,-19.149 1.598,-6.332 3.418,-12.605 5.457,-18.808 2.039,-6.203 4.297,-12.332 6.77,-18.375 2.472,-6.043 5.16,-12 8.05,-17.852 2.891,-5.855 5.993,-11.605 9.29,-17.242 3.296,-5.637 6.793,-11.152 10.48,-16.543 3.688,-5.387 7.566,-10.644 11.625,-15.762 4.059,-5.113 8.293,-10.086 12.703,-14.902 4.41,-4.816 8.988,-9.476 13.727,-13.969 4.738,-4.492 9.633,-8.82 14.675,-12.968 5.043,-4.145 10.231,-8.114 15.555,-11.899 5.324,-3.781 10.778,-7.375 16.356,-10.769 5.574,-3.399 11.269,-6.598 17.074,-9.594 5.801,-2.996 11.707,-5.785 17.707,-8.363 6,-2.579 12.086,-4.946 18.254,-7.094 6.164,-2.149 12.406,-4.078 18.707,-5.785 6.305,-1.711 12.664,-3.196 19.07,-4.457 6.41,-1.258 12.86,-2.293 19.34,-3.098 6.48,-0.805 12.984,-1.379 19.508,-1.727 6.519,-0.343 13.051,-0.461 19.578,-0.343 6.531,0.113 13.055,0.461 19.559,1.035 6.503,0.578 12.984,1.383 19.433,2.414 6.449,1.035 12.856,2.293 19.215,3.777 6.359,1.489 12.664,3.196 18.902,5.125 6.239,1.93 12.407,4.082 18.492,6.446 6.086,2.363 12.09,4.945 17.993,7.734 5.906,2.789 11.711,5.785 17.402,8.98 5.691,3.2 11.273,6.598 16.727,10.192 5.453,3.59 10.777,7.375 15.961,11.34 5.192,3.968 10.232,8.117 15.122,12.441 4.9,4.324 9.64,8.82 14.21,13.477 4.58,4.656 8.99,9.476 13.23,14.445 4.23,4.969 8.29,10.086 12.17,15.34 3.87,5.258 7.56,10.648 11.06,16.164 3.49,5.515 6.79,11.152 9.89,16.902 3.09,5.75 5.99,11.606 8.67,17.559 2.69,5.953 5.16,11.996 7.42,18.125 2.25,6.125 4.3,12.332 6.11,18.601 1.82,6.274 3.42,12.606 4.8,18.993 1.37,6.382 2.52,12.812 3.43,19.277 0.92,6.465 1.61,12.961 2.08,19.476 0.46,6.512 0.69,13.039 0.69,19.571 z" /><path
         id="path3381"
         style="fill:none;stroke:#000000;stroke-width:29.99600029;stroke-linecap:round;stroke-linejoin:round;stroke-miterlimit:10;stroke-dasharray:none;stroke-opacity:1"
         d="m 826.859,601.68 0,0" /><g
         id="g3383"><g
           clip-path="url(#clipPath3387)"
           id="g3385"><path
             id="path3391"
             style="fill:none;stroke:#000000;stroke-width:4.99934006;stroke-linecap:round;stroke-linejoin:round;stroke-miterlimit:10;stroke-dasharray:none;stroke-opacity:1"
             d="m 2131.59,-482.145 c 0,25.508 -0.9,51.008 -2.7,76.454 -1.8,25.441 -4.5,50.816 -8.09,76.07 -3.59,25.254 -8.07,50.371 -13.43,75.312 -5.36,24.938 -11.6,49.676 -18.71,74.176 -7.11,24.496 -15.08,48.735 -23.9,72.668 -8.81,23.9377 -18.47,47.5548 -28.96,70.8048 -10.48,23.2539 -21.79,46.13286 -33.89,68.586 -12.09,22.457 -24.98,44.4805 -38.63,66.0273 -13.65,21.5429 -28.07,42.6019 -43.21,63.1329 -15.13,20.531 -30.99,40.519 -47.54,59.93 -16.55,19.41 -33.78,38.23 -51.65,56.425 -17.88,18.196 -36.4,35.754 -55.51,52.645 -19.12,16.887 -38.82,33.098 -59.08,48.594 -20.26,15.5 -41.06,30.277 -62.36,44.308 -21.3,14.032 -43.1,27.305 -65.34,39.797 -22.23,12.492 -44.91,24.199 -67.97,35.09 -23.07,10.895 -46.51,20.969 -70.28,30.211 -23.78,9.238 -47.88,17.633 -72.24,25.172 -24.37,7.539 -49,14.219 -73.84,20.019 -24.84,5.801 -49.87,10.723 -75.06,14.758 -25.19,4.035 -50.51,7.18 -75.91,9.426 -25.41,2.25 -50.9,3.598 -76.4,4.051 -25.5,0.449 -51.01,0 -76.488,-1.352 -25.468,-1.351 -50.886,-3.597 -76.199,-6.742 -25.312,-3.145 -50.508,-7.18 -75.539,-12.102 -25.027,-4.918 -49.875,-10.722 -74.492,-17.398 -24.621,-6.672 -48.996,-14.215 -73.082,-22.609 -24.086,-8.395 -47.871,-17.637 -71.305,-27.707 -23.433,-10.075 -46.508,-20.969 -69.172,-32.672 -22.668,-11.7 -44.914,-24.196 -66.695,-37.465 -21.785,-13.274 -43.094,-27.309 -63.891,-42.082 -20.793,-14.774 -41.058,-30.274 -60.757,-46.481 -19.7,-16.203 -38.821,-33.097 -57.329,-50.648 -18.507,-17.555 -36.39,-35.754 -53.613,-54.57 -17.226,-18.813 -33.777,-38.231 -49.633,-58.215 -15.851,-19.981 -30.996,-40.52 -45.402,-61.571 C 138.891,108.848 125.234,87.2969 112.348,65.2813 99.4648,43.2656 87.3633,20.8008 76.0664,-2.06641 64.7656,-24.9336 54.2773,-48.1953 44.6211,-71.8047 34.9648,-95.4141 26.1445,-119.355 18.1758,-143.586 10.207,-167.82 3.09766,-192.324 -3.14063,-217.059 c -6.23828,-24.73 -11.60157,-49.675 -16.08207,-74.789 -4.4804,-25.109 -8.0703,-50.371 -10.7656,-75.738 -2.6953,-25.363 -4.4961,-50.816 -5.3945,-76.309 -0.9024,-25.492 -0.9024,-51.007 0,-76.5 0.8984,-25.492 2.6992,-50.941 5.3945,-76.308 2.6953,-25.363 6.2852,-50.625 10.7656,-75.738 4.4805,-25.11 9.84379,-50.055 16.08207,-74.789 6.23829,-24.735 13.34763,-49.239 21.31643,-73.469 7.9687,-24.235 16.789,-48.176 26.4453,-71.785 9.6562,-23.61 20.1445,-46.868 31.4453,-69.739 11.2969,-22.867 23.3984,-45.327 36.2816,-67.347 12.886,-22.01 26.543,-43.57 40.945,-64.62 14.406,-21.05 29.551,-41.58 45.402,-61.57 15.856,-19.98 32.407,-39.4 49.633,-58.21 17.223,-18.82 35.106,-37.02 53.613,-54.57 18.508,-17.55 37.629,-34.45 57.329,-50.65 19.699,-16.2 39.964,-31.71 60.757,-46.48 20.797,-14.78 42.106,-28.81 63.891,-42.08 21.781,-13.27 44.027,-25.77 66.695,-37.47 22.664,-11.7 45.739,-22.6 69.172,-32.67 23.434,-10.07 47.219,-19.31 71.305,-27.71 24.086,-8.39 48.461,-15.93 73.082,-22.61 24.617,-6.67 49.465,-12.47 74.492,-17.4 25.031,-4.92 50.227,-8.95 75.539,-12.1 25.313,-3.14 50.731,-5.39 76.199,-6.74 25.478,-1.35 50.988,-1.8 76.488,-1.35 25.5,0.45 50.99,1.8 76.4,4.05 25.4,2.25 50.72,5.39 75.91,9.43 25.19,4.03 50.22,8.95 75.06,14.76 24.84,5.8 49.47,12.47 73.84,20.01 24.36,7.54 48.46,15.94 72.24,25.18 23.77,9.24 47.21,19.31 70.28,30.21 23.06,10.89 45.74,22.59 67.97,35.09 22.24,12.49 44.04,25.77 65.34,39.79 21.3,14.03 42.1,28.82 62.36,44.31 20.26,15.5 39.96,31.71 59.08,48.6 19.11,16.89 37.63,34.44 55.51,52.64 17.87,18.19 35.1,37.02 51.65,56.43 16.55,19.41 32.41,39.4 47.54,59.92 15.14,20.54 29.56,41.59 43.21,63.14 13.65,21.55 26.54,43.57 38.63,66.025 12.1,22.457 23.41,45.332 33.89,68.586 10.49,23.254 20.15,46.867 28.96,70.805 8.82,23.933 16.79,48.172 23.9,72.672 7.11,24.496 13.35,49.238 18.71,74.175 5.36,24.938 9.84,50.055 13.43,75.309 3.59,25.254 6.29,50.629 8.09,76.07 1.8,25.446 2.7,50.946 2.7,76.453 z" /></g></g><path
         id="path3393"
         style="fill:none;stroke:#000000;stroke-width:29.99600029;stroke-linecap:round;stroke-linejoin:round;stroke-miterlimit:10;stroke-dasharray:none;stroke-opacity:1"
         d="m 1047.77,601.68 0,0" /><path
         id="path3395"
         style="fill:none;stroke:#000000;stroke-width:29.99600029;stroke-linecap:round;stroke-linejoin:round;stroke-miterlimit:10;stroke-dasharray:none;stroke-opacity:1"
         d="m 826.859,1156.59 0,0" /><path
         id="path3397"
         style="fill:none;stroke:#000000;stroke-width:2.99959993;stroke-linecap:round;stroke-linejoin:round;stroke-miterlimit:10;stroke-dasharray:24.3266, 24.3266;stroke-dashoffset:0;stroke-opacity:1"
         d="M 750.848,1347.53 1047.77,601.68" /><path
         id="path3399"
         style="fill:none;stroke:#000000;stroke-width:29.99600029;stroke-linecap:round;stroke-linejoin:round;stroke-miterlimit:10;stroke-dasharray:none;stroke-opacity:1"
         d="m 750.848,1347.53 0,0" /><g
         transform="scale(10,10)"
         id="g3401"><text
           id="text3403"
           style="font-variant:normal;font-weight:normal;font-size:10.90909958px;font-family:CMMI10;-inkscape-font-specification:CMMI10;writing-mode:lr-tb;fill:#000000;fill-opacity:1;fill-rule:nonzero;stroke:none"
           transform="matrix(1,0,0,-1,66.8398,139.68)"><tspan
             id="tspan3405"
             y="0"
             x="0">A</tspan><tspan
             id="tspan3407"
             y="85.560204"
             x="-42.839802">B</tspan><tspan
             id="tspan3409"
             y="85.319969"
             x="89.520203">C</tspan><tspan
             id="tspan3411"
             y="91.919968"
             x="5.6401">A</tspan></text>
<text
           id="text3413"
           style="font-variant:normal;font-weight:normal;font-size:7.97010994px;font-family:CMR8;-inkscape-font-specification:CMR8;writing-mode:lr-tb;fill:#000000;fill-opacity:1;fill-rule:nonzero;stroke:none"
           transform="matrix(1,0,0,-1,80.63967,46.079954)"><tspan
             id="tspan3415"
             y="0"
             x="0">0</tspan></text>
<text
           id="text3417"
           style="font-variant:normal;font-weight:normal;font-size:10.90909958px;font-family:CMMI10;-inkscape-font-specification:CMMI10;writing-mode:lr-tb;fill:#000000;fill-opacity:1;fill-rule:nonzero;stroke:none"
           transform="matrix(1,0,0,-1,105.11977,48.479954)"><tspan
             id="tspan3419"
             y="0"
             x="0">Q</tspan><tspan
             id="tspan3421"
             y="-54.839802"
             x="-32.7598">F</tspan></text>
</g></g></g></svg>